<?xml version="1.0" encoding="UTF-8"?>
<!-- Generator: Adobe Illustrator 20.1.0, SVG Export Plug-In . SVG Version: 6.00 Build 0)  -->
<svg version="1.1" id="Layer_1" xmlns="http://www.w3.org/2000/svg" xmlns:xlink="http://www.w3.org/1999/xlink" x="0px" y="0px" viewBox="0 0 64 64" enable-background="new 0 0 64 64" xml:space="preserve">
<g>
	<g>
		<path fill="#D4E8FB" d="M9.217,49.32C9.1,49.32,9,49.222,9,49.104V14.03c0-0.117,0.1-0.217,0.217-0.217h47.035    c0.117,0,0.217,0.1,0.217,0.217v35.074c0,0.117-0.1,0.216-0.217,0.216H9.217z"/>
		<path fill="#298EEA" d="M55.469,14.814v33.507H10V14.814H55.469 M56.252,12.814H9.216C8.547,12.814,8,13.361,8,14.03v35.074    c0,0.669,0.547,1.216,1.216,1.216h47.036c0.669,0,1.216-0.547,1.216-1.216V14.03C57.469,13.361,56.921,12.814,56.252,12.814    L56.252,12.814z"/>
	</g>
	<g>
		<path fill="#FFFFFF" d="M13.748,54.187c-0.117,0-0.217-0.1-0.217-0.217V18.896c0-0.117,0.1-0.216,0.217-0.216h47.035    C60.9,18.68,61,18.778,61,18.896V53.97c0,0.117-0.1,0.217-0.217,0.217H13.748z"/>
		<path fill="#298EEA" d="M60,19.679v3.676v29.831H14.531V19.679H60 M60.784,17.679H13.748c-0.669,0-1.216,0.547-1.216,1.216V53.97    c0,0.669,0.547,1.216,1.216,1.216h47.036c0.669,0,1.216-0.547,1.216-1.216V23.356v-4.46C62,18.227,61.453,17.679,60.784,17.679    L60.784,17.679z"/>
	</g>
	<line fill="none" stroke="#298EEA" stroke-miterlimit="10" x1="13" y1="26.5" x2="62" y2="26.5"/>
	<g>
		<circle fill="#C9C9C9" cx="56.987" cy="22.596" r="1.368"/>
	</g>
	<g>
		<circle fill="#C9C9C9" cx="51.513" cy="22.596" r="1.368"/>
	</g>
	<g>
		<circle fill="#C9C9C9" cx="46.039" cy="22.596" r="1.368"/>
	</g>
	<g>
		<g>
			<path fill="#298EEA" d="M30.102,46.354c-0.182,0-0.362-0.082-0.482-0.238l-4.989-6.483l5.265-6.841     c0.206-0.266,0.587-0.315,0.853-0.112c0.266,0.206,0.316,0.587,0.112,0.853l-4.695,6.1l4.419,5.741     c0.204,0.266,0.154,0.647-0.112,0.853C30.362,46.313,30.231,46.354,30.102,46.354z"/>
		</g>
		<g>
			<path fill="#298EEA" d="M43.761,46.354c0.182,0,0.362-0.082,0.482-0.238l4.989-6.483l-5.265-6.841     c-0.206-0.266-0.587-0.315-0.853-0.112c-0.266,0.206-0.316,0.587-0.112,0.853l4.695,6.1l-4.419,5.741     c-0.204,0.266-0.154,0.647,0.112,0.853C43.5,46.313,43.631,46.354,43.761,46.354z"/>
		</g>
		<g>
			<path fill="#298EEA" d="M33.748,47.33c-0.083,0-0.166-0.017-0.246-0.052c-0.308-0.135-0.447-0.495-0.31-0.802l6.488-14.647     c0.138-0.308,0.5-0.444,0.802-0.31c0.308,0.135,0.447,0.495,0.31,0.802l-6.488,14.647C34.203,47.194,33.98,47.33,33.748,47.33z"/>
		</g>
	</g>
</g>
</svg>